<?xml version="1.0" encoding="utf-8"?>
<!-- Generator: Adobe Illustrator 24.3.0, SVG Export Plug-In . SVG Version: 6.00 Build 0)  -->
<svg version="1.1" id="final_svg" xmlns="http://www.w3.org/2000/svg" xmlns:xlink="http://www.w3.org/1999/xlink" x="0px" y="0px"
	 viewBox="0 0 1595.1 290.9" style="enable-background:new 0 0 1595.1 290.9;" xml:space="preserve">
<style type="text/css">
	.st0{fill:#FF9E03;}
	.st1{fill:#FFFFFF;}
</style>
<g>
	<g id="color_index_0" transform="translate(508.02652437524443, 247.90447131482875) scale(0.9234275243901702)">
		<g>
			<path class="st0" d="M-461.5-268.5c0,0,8.4,15.7,8.4,47V11.2c0,11.8-8.4,35.3-8.4,35.3s-8.4-23.5-8.4-35.3v-232.7
				C-469.9-252.8-461.5-268.5-461.5-268.5z M-550.2-2.6c1.7,1.3,3.5,2.5,5.8,3.5c4.3,1.9,9.1,2.9,14,2.9c6.9,0,13.7-2,19.1-5.5
				c9-5.9,14.8-14.3,14.8-26.8v-165.4c0,0-16.8,26.1-16.8,50v116.2c0,7.9-4.9,13.4-11,15.9C-526.4-10.9-546-8-550.2-2.6L-550.2-2.6z
				 M-372.8-2.6c-4.2-5.4-23.7-8.2-26-9.1c-6.1-2.4-11-8-11-15.9v-116.2c0-23.9-16.8-50-16.8-50v165.4c0,12.5,5.8,20.9,14.8,26.8
				c5.4,3.5,12.2,5.5,19.1,5.5c4.9,0,9.8-1,14-2.9C-376.3-0.1-374.5-1.3-372.8-2.6L-372.8-2.6z"/>
		</g>
	</g>
	<g id="text_group" transform="translate(676.7681931192669, 376.56156995788103)">
		<path class="st1" d="M-395.6-165.1L-395.6-165.1c-4.7,0-9.3-1.3-13.9-3.9c-4.6-2.6-8.2-7.6-10.9-15.1l0,0l-3.6-9.5h-40.9
			l-11.7,27.7h-6.6l40.9-96.3h4.4l32.1,78.1c2.4,5.6,4.7,9.5,6.9,11.6c2.1,2.1,5.2,3.3,9.2,3.7l0,0v2.9
			C-391.5-165.3-393.4-165.1-395.6-165.1z M-462.7-199.4h35.8l-17.5-42.3L-462.7-199.4z M-343-164.3l-22.6-53.3
			c-2.3-5.5-4.6-9.3-6.7-11.5c-2.1-2.2-4.9-3.4-8.5-3.6l0,0v-2.9c0.5,0,1.2,0,2.1-0.1c0.9-0.1,1.9-0.1,2.9-0.1l0,0
			c5.2,0,9.8,1.3,14,3.9c4.2,2.6,7.8,7.4,10.8,14.4l0,0l13.1,31.4l20.4-48.2h7.3l-29.9,70.1H-343z M-256.5-164.3L-256.5-164.3
			c-6.6,0-12.4-1.6-17.2-4.7s-8.6-7.5-11.1-12.9c-2.5-5.4-3.8-11.5-3.8-18.1l0,0c0-6.6,1.3-12.7,3.8-18.1c2.5-5.4,6.2-9.7,11.1-12.9
			c4.9-3.2,10.6-4.7,17.2-4.7l0,0c6.6,0,12.4,1.6,17.2,4.7c4.9,3.2,8.6,7.5,11.1,12.9c2.5,5.4,3.8,11.5,3.8,18.1l0,0
			c0,6.6-1.3,12.6-3.8,18.1c-2.5,5.5-6.2,9.8-11.1,12.9C-244.1-165.9-249.9-164.3-256.5-164.3z M-256.5-170.2L-256.5-170.2
			c3.6,0,6.8-1.3,9.6-3.9c2.8-2.6,4.9-6.2,6.4-10.8c1.5-4.6,2.3-9.6,2.3-15.2l0,0c0-5.5-0.8-10.6-2.3-15.2
			c-1.5-4.6-3.6-8.2-6.4-10.8c-2.8-2.6-6-3.9-9.6-3.9l0,0c-3.6,0-6.8,1.3-9.6,3.9c-2.8,2.6-4.9,6.2-6.4,10.8s-2.3,9.6-2.3,15.2l0,0
			c0,5.5,0.8,10.6,2.3,15.2c1.5,4.6,3.6,8.2,6.4,10.8C-263.3-171.5-260.1-170.2-256.5-170.2z M-165.5-164.3L-165.5-164.3
			c-7,0-12.9-1.6-17.7-4.7c-4.8-3.2-8.4-7.4-10.8-12.9c-2.4-5.4-3.6-11.4-3.6-18.2l0,0c0-6.7,1.2-12.8,3.6-18.2
			c2.4-5.4,6-9.7,10.8-12.8c4.8-3.2,10.7-4.7,17.7-4.7l0,0c10.7,0,17.8,1.7,21.2,5.1l0,0c1.7,1.6,2.7,3.7,3.1,6
			c0.4,2.4,0.6,6.7,0.6,12.9l0,0h-2.9c-0.4-6-2.3-10.6-5.7-13.7c-3.4-3.1-7.8-4.6-13.3-4.6l0,0c-7,0-12.3,2.8-15.8,8.3
			c-3.6,5.5-5.3,12.8-5.3,21.6l0,0c0,8.8,1.8,16,5.3,21.6c3.5,5.5,8.8,8.3,15.8,8.3l0,0c5,0,9.1-1,12.3-2.9c3.2-1.9,6.2-4.8,8.9-8.8
			l0,0l2.9,2.2c-3.2,5.4-7,9.4-11.4,11.7C-154.3-165.5-159.5-164.3-165.5-164.3z M-93.3-164.3L-93.3-164.3c-3.1,0-6.3-0.7-9.5-2
			c-3.2-1.3-6-3.5-8.2-6.5c-2.3-3-3.4-7-3.4-12l0,0c0-7.4,3.4-12.7,10.3-15.8c6.9-3.1,15.9-4.7,26.9-4.7l0,0h4.4
			c0-9.5-1.3-16.1-3.9-19.6c-2.6-3.5-6.4-5.2-11.4-5.2l0,0c-4.4,0-7.9,0.9-10.5,2.8c-2.6,1.9-4.5,5.1-5.5,9.6l0,0h-6.6
			c0-3.3,0.2-5.9,0.6-7.8c0.4-1.9,1.4-3.7,3.1-5.3l0,0c1.7-1.8,4.6-3.1,8.7-3.9c4-0.8,8.4-1.2,13.2-1.2l0,0c7.9,0,14.1,2.1,18.7,6.3
			c4.6,4.2,6.9,12.3,6.9,24.3l0,0v39.4H-67l-5.1-6.6h-0.7c-1.7,2.2-4.3,4.1-7.7,5.7C-84-165.1-88.2-164.3-93.3-164.3z M-86.7-170.9
			L-86.7-170.9c3.2,0,5.9-0.8,8-2.3c2.1-1.6,4.1-3.7,5.8-6.4l0,0v-19.7h-4.4c-7.2,0-12.9,1.3-17.1,4c-4.2,2.7-6.3,6.2-6.3,10.6l0,0
			c0,4.5,1.3,7.9,4,10.3C-93.9-172.1-90.6-170.9-86.7-170.9z M-23.1-228.6h-10.2v-5.8h10.2v-13.1l7.3-8.8h5.8v21.9H7.6v5.8H-9.9
			v45.2c0,8.8,3.4,13.1,10.2,13.1l0,0c2.3,0,4.3-0.2,5.9-0.7c1.6-0.5,3.3-1.2,5-2.2l0,0l1.5,2.9c-2.3,1.6-4.7,3-7.5,4.2
			c-2.7,1.1-6.3,1.7-10.8,1.7l0,0c-5.5,0-9.9-1.6-12.9-4.7c-3.1-3.1-4.6-7.9-4.6-14.3l0,0V-228.6z M60-164.3L60-164.3
			c-11.2,0-18.7-1.9-22.6-5.8l0,0c-1.7-1.7-2.7-3.5-3.1-5.6c-0.4-2.1-0.6-5.3-0.6-9.7l0,0h2.9c0.9,4.9,3,8.6,6.4,11.3
			c3.3,2.7,8,4,14.1,4l0,0c5.4,0,9.4-0.9,12-2.8c2.7-1.9,4-4.3,4-7.4l0,0c0-2.8-1-5.3-3.1-7.3c-2.1-2.1-5.4-4-10-5.8l0,0l-8.8-3.6
			c-5.8-2.3-10.2-5.1-13.1-8.2c-2.9-3.1-4.4-7-4.4-11.5l0,0c0-5.9,2.2-10.6,6.7-14c4.5-3.3,10.3-5,17.4-5l0,0
			c10.7,0,18,1.9,21.9,5.8l0,0c1.7,1.6,2.7,3.5,3.1,5.5c0.4,2,0.6,5.3,0.6,9.8l0,0h-2.9c-0.8-4.9-2.8-8.6-6.1-11.3
			c-3.3-2.7-7.8-4-13.6-4l0,0c-4.6,0-8.1,0.9-10.7,2.8c-2.6,1.9-3.9,4.4-3.9,7.4l0,0c0,5,3.9,9.2,11.7,12.4l0,0l8.8,3.6
			c6.6,2.7,11.4,5.6,14.5,8.7c3,3.1,4.5,7,4.5,11.8l0,0c0,5.9-2.4,10.6-7.1,13.9C73.6-166,67.5-164.3,60-164.3z M167.8-262.1h13.9
			l35,75.9l34.3-75.9h13.1v71.5c0,9.1,1.1,16.2,3.4,21.1c2.3,4.9,5.8,7.4,10.4,7.4l0,0v2.9c-5.3,0-9.6-0.6-13.1-1.8
			c-3.5-1.2-6.2-3-8.3-5.5c-2.1-2.5-3.5-5.8-4.4-9.7c-0.8-3.9-1.2-8.7-1.2-14.4l0,0v-56.2l-36.5,81h-2.9l-37.9-82.5v82.5h-5.8
			V-262.1z M319.2-164.3L319.2-164.3c-3.1,0-6.3-0.7-9.5-2c-3.2-1.3-6-3.5-8.3-6.5c-2.3-3-3.4-7-3.4-12l0,0
			c0-7.4,3.4-12.7,10.3-15.8c6.9-3.1,15.8-4.7,26.9-4.7l0,0h4.4c0-9.5-1.3-16.1-3.9-19.6s-6.4-5.2-11.4-5.2l0,0
			c-4.4,0-7.9,0.9-10.5,2.8c-2.6,1.9-4.5,5.1-5.5,9.6l0,0h-6.6c0-3.3,0.2-5.9,0.6-7.8c0.4-1.9,1.4-3.7,3.1-5.3l0,0
			c1.7-1.8,4.6-3.1,8.7-3.9c4-0.8,8.5-1.2,13.2-1.2l0,0c7.9,0,14.1,2.1,18.7,6.3c4.6,4.2,6.9,12.3,6.9,24.3l0,0v39.4h-7.3l-5.1-6.6
			h-0.7c-1.8,2.2-4.3,4.1-7.8,5.7C328.5-165.1,324.2-164.3,319.2-164.3z M325.8-170.9L325.8-170.9c3.2,0,5.9-0.8,8-2.3
			c2.1-1.6,4.1-3.7,5.8-6.4l0,0v-19.7h-4.4c-7.2,0-12.9,1.3-17.1,4c-4.2,2.7-6.3,6.2-6.3,10.6l0,0c0,4.5,1.3,7.9,4,10.3
			S321.9-170.9,325.8-170.9z M387.8-165.8v-51.1c0-5-0.7-8.7-2.1-11c-1.4-2.4-4.1-3.6-8.2-3.6l0,0h-1.5v-2.9h11.7
			c3.7,0,6.5,0.5,8.4,1.5c1.9,1,3.2,2.7,4,5l0,0c2.1-2.1,4.8-4,7.9-5.6c3.1-1.6,6.6-2.4,10.4-2.4l0,0c3.9,0,6.8,0.7,8.8,2.2l0,0
			c1.6,1.3,3.3,3.5,5.1,6.6l0,0l-5.8,4.4c-1.1-1.5-2.6-2.6-4.7-3.3c-2.1-0.7-4.4-1.1-7-1.1l0,0c-2.9,0-5.6,0.7-8,2
			c-2.4,1.3-4.4,3.1-5.8,5.3l0,0v54H387.8z M459.3-165.8v-51.1c0-5-0.7-8.7-2.1-11c-1.4-2.4-4.1-3.6-8.2-3.6l0,0h-1.5v-2.9h11.7
			c3.7,0,6.5,0.5,8.4,1.5c1.9,1,3.2,2.7,4,5l0,0c2.1-2.1,4.8-4,7.9-5.6c3.1-1.6,6.6-2.4,10.4-2.4l0,0c3.9,0,6.8,0.7,8.8,2.2l0,0
			c1.6,1.3,3.3,3.5,5.1,6.6l0,0l-5.8,4.4c-1.1-1.5-2.6-2.6-4.7-3.3c-2.1-0.7-4.4-1.1-7-1.1l0,0c-2.9,0-5.6,0.7-8,2
			c-2.4,1.3-4.4,3.1-5.8,5.3l0,0v54H459.3z M546-164.3L546-164.3c-3.1,0-6.3-0.7-9.5-2c-3.2-1.3-6-3.5-8.2-6.5c-2.3-3-3.4-7-3.4-12
			l0,0c0-7.4,3.4-12.7,10.3-15.8c6.9-3.1,15.9-4.7,26.9-4.7l0,0h4.4c0-9.5-1.3-16.1-3.9-19.6c-2.6-3.5-6.4-5.2-11.4-5.2l0,0
			c-4.4,0-7.9,0.9-10.5,2.8c-2.6,1.9-4.5,5.1-5.5,9.6l0,0h-6.6c0-3.3,0.2-5.9,0.6-7.8c0.4-1.9,1.4-3.7,3.1-5.3l0,0
			c1.7-1.8,4.6-3.1,8.7-3.9c4-0.8,8.4-1.2,13.2-1.2l0,0c7.9,0,14.1,2.1,18.7,6.3c4.6,4.2,6.9,12.3,6.9,24.3l0,0v39.4h-7.3l-5.1-6.6
			h-0.7c-1.7,2.2-4.3,4.1-7.7,5.7C555.3-165.1,551.1-164.3,546-164.3z M552.6-170.9L552.6-170.9c3.2,0,5.9-0.8,8-2.3
			c2.1-1.6,4.1-3.7,5.8-6.4l0,0v-19.7h-4.4c-7.2,0-12.9,1.3-17.1,4c-4.2,2.7-6.3,6.2-6.3,10.6l0,0c0,4.5,1.3,7.9,4,10.3
			C545.4-172.1,548.7-170.9,552.6-170.9z M600.3-259.2v-2.9h13.1c2.6,0,4.8,0.2,6.5,0.6c1.7,0.4,3,1.3,4,2.6c1,1.3,1.6,3.1,2,5.3
			c0.4,2.2,0.6,5.2,0.6,8.9l0,0v43.1l18.2-23.4c2.5-3.1,5.2-5.5,8-7.1c2.8-1.6,6.5-2.4,10.9-2.4l0,0h4.4v3.6c-2.6,0-5.2,0.5-7.6,1.6
			s-4.5,2.7-6.3,5l0,0l-16.1,20.4l18.2,23.4c2.8,3.7,5.5,6.5,8,8.3c2.5,1.9,5.2,3,8.1,3.5l0,0v2.8c-2,1-4.5,1.5-7.3,1.5l0,0
			c-8.3,0-15.3-3.9-21.2-11.7l0,0l-17.5-23.4v33.6h-13.1v-78.8c0-5-0.7-8.7-2.1-11c-1.4-2.4-4.1-3.6-8.2-3.6l0,0H600.3z
			 M719.3-164.3L719.3-164.3c-6.6,0-12.2-1.6-16.8-4.7c-4.6-3.2-8-7.4-10.4-12.9c-2.3-5.4-3.5-11.4-3.5-18.2l0,0
			c0-6.6,1.2-12.7,3.5-18.1c2.3-5.4,5.7-9.7,10.1-12.9c4.4-3.2,9.6-4.7,15.6-4.7l0,0c9.8,0,17.1,2.7,22,8.2
			c4.8,5.5,7.2,13.5,7.2,23.9l0,0l-0.3,5.8h-44.2c0,8.2,1.7,14.8,5.2,20c3.5,5.2,8.3,7.8,14.5,7.8l0,0c4.6,0,8.4-1,11.6-2.9
			c3.2-1.9,6.1-4.9,8.8-8.8l0,0l2.9,2.2c-3.2,5.4-7,9.2-11.2,11.7C730-165.6,725-164.3,719.3-164.3z M702.5-203.8h30.7
			c0-8.6-1.3-15.1-3.8-19.6c-2.5-4.5-6.4-6.7-11.5-6.7l0,0c-2.9,0-5.5,1.1-7.9,3.4c-2.3,2.3-4.2,5.4-5.5,9.4
			C703.1-213.2,702.5-208.7,702.5-203.8L702.5-203.8z M805.5-164.3L805.5-164.3c-7,0-12.9-1.6-17.7-4.7c-4.8-3.2-8.4-7.4-10.8-12.9
			c-2.4-5.4-3.6-11.4-3.6-18.2l0,0c0-6.7,1.2-12.8,3.6-18.2c2.4-5.4,6-9.7,10.8-12.8c4.8-3.2,10.7-4.7,17.7-4.7l0,0
			c10.7,0,17.8,1.7,21.2,5.1l0,0c1.7,1.6,2.7,3.7,3.1,6c0.4,2.4,0.6,6.7,0.6,12.9l0,0h-2.9c-0.4-6-2.3-10.6-5.7-13.7
			c-3.4-3.1-7.8-4.6-13.3-4.6l0,0c-7,0-12.3,2.8-15.8,8.3c-3.6,5.5-5.3,12.8-5.3,21.6l0,0c0,8.8,1.8,16,5.3,21.6
			c3.6,5.5,8.8,8.3,15.8,8.3l0,0c5,0,9.1-1,12.3-2.9c3.2-1.9,6.2-4.8,8.9-8.8l0,0l2.9,2.2c-3.2,5.4-7,9.4-11.4,11.7
			C816.7-165.5,811.5-164.3,805.5-164.3z M848.3-259.2v-2.9h13.1c2.6,0,4.8,0.2,6.5,0.6c1.7,0.4,3,1.3,4,2.6c1,1.3,1.7,3.1,2.1,5.3
			s0.6,5.2,0.6,8.9l0,0v16.1c2-2.1,4.7-3.8,7.9-5.2c3.3-1.4,6.9-2.1,11-2.1l0,0c3.7,0,7,0.5,10.1,1.4c3,0.9,5.6,2.4,7.8,4.5
			c2.2,2,3.9,4.7,5.1,8.1c1.2,3.4,1.8,7.5,1.8,12.3l0,0v43.8h-13.1v-43.8c0-6.8-1.5-11.8-4.5-15c-3-3.2-6.8-4.7-11.5-4.7l0,0
			c-5.2,0-10,2.6-14.6,7.7l0,0v55.8h-13.1v-78.8c0-5-0.7-8.7-2.1-11c-1.4-2.4-4.1-3.6-8.2-3.6l0,0H848.3z"/>
	</g>
</g>
</svg>
