<!DOCTYPE svg PUBLIC "-//W3C//DTD SVG 1.1//EN" "http://www.w3.org/Graphics/SVG/1.1/DTD/svg11.dtd">
<!-- Uploaded to: SVG Repo, www.svgrepo.com, Transformed by: SVG Repo Mixer Tools -->
<svg width="800px" height="800px" viewBox="0 0 24 24" xmlns="http://www.w3.org/2000/svg" fill="none">
<g id="SVGRepo_bgCarrier" stroke-width="0"/>
<g id="SVGRepo_tracerCarrier" stroke-linecap="round" stroke-linejoin="round"/>
<g id="SVGRepo_iconCarrier">
<path fill="#ff5252" d="M9 7h9v11a2 2 0 0 1-2 2H8a2 2 0 0 1-2-2V7h3z"/>
<path stroke="#ff5252" stroke-linecap="round" stroke-linejoin="round" stroke-width="2" d="M20 7h-2M4 7h2m0 0h12M6 7v11a2 2 0 0 0 2 2h8a2 2 0 0 0 2-2V7m-9-.5v0A2.5 2.5 0 0 1 11.5 4h1A2.5 2.5 0 0 1 15 6.5v0"/>
</g>
</svg>